<svg viewBox="0 0 139 32" fill="none" xmlns="http://www.w3.org/2000/svg">
  <g transform="scale(0.01334) translate(-4790, -5880)">
    <polygon fill="#FEFEFE" points="6491.13,6923.79 6920.41,6428.55 6495.74,6428.55 6278.8,6678.83"/>
    <path fill="#FEFEFE" d="M4790.14 7475.21l557.06 0 -54.78 -61.02 575.21 -663.64 174.5 201.33 -453.61 523.33 424.66 0 36.28 -41.86 417.3 -481.47 -386.81 -446.29 0.01 -0.01 -65.88 -76.03 -0.01 0 -0.87 -1 -424.68 0 54.03 62.34 -852.41 984.32zm1488.66 -250.28l162.93 187.94 -54.03 62.34 532.63 0 -429.2 -495.24 -212.33 244.96z"/>
    <path fill="#FEFEFE" d="M7557.16 7486.12l119.44 0 111.12 -250 651.38 0 109.72 250 120.82 0 -436.1 -972.2 -241.66 0 -434.72 972.2zm269.44 -341.66l233.34 -529.16 106.94 0 231.94 529.16 -572.22 0zm979.72 341.66l113.88 0 0 -388.88 245.84 0c147.8,11.52 225.14,104.48 292.68,196.6 70.82,96.58 130.94,192.28 250.36,192.28l134.72 0 0 -101.38 -109.72 0c-74.32,0 -121.54,-64.86 -177.58,-138.72 -41.34,-54.46 -87.52,-113.86 -152.96,-155.72 4.16,0 29.16,0 33.32,0 190.28,0 291.66,-100 291.66,-283.34 0,-194.44 -122.22,-293.04 -384.72,-293.04l-537.48 0 0 972.2zm534.72 -876.38c193.04,0 273.6,62.5 273.6,197.22 0,136.12 -80.56,198.62 -273.6,198.62l-420.84 0 0 -395.84 420.84 0zm640.82 876.38l113.88 0 0 -388.88 245.84 0c146.68,11.44 223.94,103.06 291.12,194.5 71.5,97.28 131.64,194.38 251.92,194.38l134.72 0 0 -101.38 -109.72 0c-79.74,0 -128.26,-74.68 -189.98,-154.98 -38.24,-49.78 -81.58,-101.74 -140.56,-139.46 4.16,0 29.16,0 33.32,0 190.28,0 291.66,-100 291.66,-283.34 0,-194.44 -122.22,-293.04 -384.72,-293.04l-537.48 0 0 972.2zm534.72 -876.38c193.04,0 273.6,62.5 273.6,197.22 0,136.12 -80.56,198.62 -273.6,198.62l-420.84 0 0 -395.84 420.84 0zm576.94 390.28c0,300 218.04,499.98 561.1,499.98 343.04,0 561.1,-199.98 561.1,-499.98 0,-300 -218.06,-500 -561.1,-500 -343.06,0 -561.1,200 -561.1,500zm113.88 0c0,-244.44 176.38,-404.16 447.22,-404.16 272.2,0 445.82,159.72 445.82,404.16 0,244.44 -173.62,404.16 -445.82,404.16 -270.84,0 -447.22,-159.72 -447.22,-404.16zm1382.48 486.1l159.72 0 293.06 -840.26 30.56 0 293.04 840.26 159.72 0 341.66 -972.2 -112.5 0 -293.04 834.7 -30.56 0 -291.66 -834.7 -163.88 0 -291.68 834.7 -30.54 0 -293.06 -834.7 -112.5 0 341.66 972.2zm1582.48 -972.2l418.06 483.32 -420.84 488.88 134.72 0 366.66 -429.16 31.96 0 369.42 429.16 134.72 0 -418.04 -481.94 420.82 -490.26 -134.72 0 -365.26 429.16 -33.34 0 -369.44 -429.16 -134.72 0z"/>
  </g>
</svg>